<svg xmlns="http://www.w3.org/2000/svg" viewBox="0 0 24 24" fill="#2a2a5e"><path d="M12 15a3 3 0 100-6 3 3 0 000 6z"/><path fill-rule="evenodd" d="M1.323 11.416c-.499-.064-.943-.35-.943-.831V9.415c0-.481.444-.767.943-.831l1.393-.18c.099-.381.23-.745.385-1.087l-.934-1.066c-.33-.377-.31-.913.064-1.287l1.01-1.01c.374-.374.91-.394 1.287-.064l1.066.934c.342-.155.706-.286 1.087-.385l.18-1.393c.064-.499.35-.943.831-.943h1.415c.481 0 .767.444.831.943l.18 1.393c.381.099.745.23 1.087.385l1.066-.934c.377-.33.913-.31 1.287.064l1.01 1.01c.374.374.394.91.064 1.287l-.934 1.066c.155.342.286.706.385 1.087l1.393.18c.499.064.943.35.943.831v1.415c0 .481-.444.767-.943.831l-1.393.18c-.099.381-.23.745-.385 1.087l.934 1.066c.33.377.31.913-.064 1.287l-1.01 1.01c-.374.374-.91.394-1.287.064l-1.066-.934a8.161 8.161 0 01-1.087.385l-.18 1.393c-.064.499-.35.943-.831.943H9.415c-.481 0-.767-.444-.831-.943l-.18-1.393a8.162 8.162 0 01-1.087-.385l-1.066.934c-.377.33-.913.31-1.287-.064l-1.01-1.01c-.374-.374-.394-.91-.064-1.287l.934-1.066a8.163 8.163 0 01-.385-1.087l-1.393-.18z" clip-rule="evenodd"/></svg>